<mxfile host="app.diagrams.net" modified="2023-11-30T05:41:38.979Z" agent="Mozilla/5.0 (Macintosh; Intel Mac OS X 10_15_7) AppleWebKit/537.36 (KHTML, like Gecko) Chrome/113.0.0.0 Safari/537.36" etag="NC2MXclFIJoUGLhS2mSl" version="22.1.4" type="github">
  <diagram name="第 1 页" id="QIrQ3YniP6jFHcjuNLMh">
    <mxGraphModel dx="1466" dy="863" grid="1" gridSize="10" guides="1" tooltips="1" connect="1" arrows="1" fold="1" page="1" pageScale="1" pageWidth="827" pageHeight="1169" math="0" shadow="0">
      <root>
        <mxCell id="0" />
        <mxCell id="1" parent="0" />
        <mxCell id="Zy6eCbC35qxuOklVpRWe-1" value="&lt;h4 style=&quot;margin: 14pt 0cm 14.5pt; line-height: 29.12px; break-after: avoid; text-align: start;&quot;&gt;&lt;font style=&quot;font-size: 16px;&quot; face=&quot;Times New Roman&quot;&gt;Hypotheses&lt;/font&gt;&lt;/h4&gt;" style="swimlane;whiteSpace=wrap;html=1;verticalAlign=middle;" vertex="1" parent="1">
          <mxGeometry x="150" y="100" width="200" height="200" as="geometry" />
        </mxCell>
        <mxCell id="Zy6eCbC35qxuOklVpRWe-33" value="&lt;font style=&quot;&quot; face=&quot;Times New Roman&quot;&gt;&lt;font style=&quot;font-size: 14px;&quot;&gt;&lt;b&gt;H1:&lt;/b&gt;&lt;/font&gt;&lt;span style=&quot;font-size: 13px;&quot;&gt; The recommendation algorithm was used in the comments section&lt;/span&gt;&lt;/font&gt;" style="rounded=0;whiteSpace=wrap;html=1;align=left;" vertex="1" parent="Zy6eCbC35qxuOklVpRWe-1">
          <mxGeometry x="10" y="40" width="180" height="60" as="geometry" />
        </mxCell>
        <mxCell id="Zy6eCbC35qxuOklVpRWe-34" value="&lt;font style=&quot;&quot; face=&quot;Times New Roman&quot;&gt;&lt;font style=&quot;font-size: 14px;&quot;&gt;&lt;b&gt;H2:&lt;/b&gt;&lt;/font&gt;&lt;span style=&quot;font-size: 13px;&quot;&gt; Privacy attributes can be inferred from the comments section&lt;/span&gt;&lt;/font&gt;" style="rounded=0;whiteSpace=wrap;html=1;align=left;" vertex="1" parent="Zy6eCbC35qxuOklVpRWe-1">
          <mxGeometry x="10" y="120" width="180" height="60" as="geometry" />
        </mxCell>
        <mxCell id="Zy6eCbC35qxuOklVpRWe-4" value="&lt;ul style=&quot;border-color: var(--border-color); text-align: left; box-sizing: border-box; caret-color: rgb(42, 43, 46); color: rgb(42, 43, 46); text-size-adjust: auto;&quot;&gt;&lt;li style=&quot;border-color: var(--border-color); box-sizing: border-box; margin: 0px; padding: 0px; list-style: none;&quot;&gt;&lt;h4 style=&quot;margin: 14pt 0cm 14.5pt; line-height: 29.12px; break-after: avoid; color: rgb(0, 0, 0);&quot;&gt;&lt;font style=&quot;font-size: 16px;&quot; face=&quot;Times New Roman&quot;&gt;Data Collection&lt;/font&gt;&lt;/h4&gt;&lt;/li&gt;&lt;/ul&gt;" style="swimlane;whiteSpace=wrap;html=1;" vertex="1" parent="1">
          <mxGeometry x="410" y="100" width="200" height="200" as="geometry" />
        </mxCell>
        <mxCell id="Zy6eCbC35qxuOklVpRWe-6" value="&lt;font style=&quot;&quot;&gt;&lt;b style=&quot;&quot;&gt;&lt;font face=&quot;Times New Roman&quot; style=&quot;font-size: 14px;&quot;&gt;Video Selection&lt;/font&gt;&lt;/b&gt;&lt;b style=&quot;font-size: 12px;&quot;&gt;:&lt;/b&gt;&lt;span style=&quot;font-size: 12px; font-family: &amp;quot;Times New Roman&amp;quot;, serif;&quot; lang=&quot;EN-US&quot;&gt; &lt;/span&gt;&lt;span style=&quot;font-size: 12px; font-family: &amp;quot;Times New Roman&amp;quot;, serif;&quot; lang=&quot;EN-US&quot;&gt;Select 20 contentious videos related to gender concerns.&lt;/span&gt;&lt;/font&gt;&lt;span style=&quot;font-size: medium;&quot;&gt;&lt;/span&gt;" style="rounded=0;whiteSpace=wrap;html=1;align=left;" vertex="1" parent="Zy6eCbC35qxuOklVpRWe-4">
          <mxGeometry x="10" y="34" width="180" height="50" as="geometry" />
        </mxCell>
        <mxCell id="Zy6eCbC35qxuOklVpRWe-8" value="&lt;b style=&quot;border-color: var(--border-color); text-align: start; text-indent: -28px;&quot;&gt;&lt;font face=&quot;Times New Roman&quot; style=&quot;font-size: 14px;&quot;&gt;Participant Data Donation&lt;/font&gt;&lt;/b&gt;" style="swimlane;fontStyle=0;childLayout=stackLayout;horizontal=1;startSize=30;horizontalStack=0;resizeParent=1;resizeParentMax=0;resizeLast=0;collapsible=1;marginBottom=0;whiteSpace=wrap;html=1;" vertex="1" parent="Zy6eCbC35qxuOklVpRWe-4">
          <mxGeometry x="10" y="96" width="180" height="100" as="geometry" />
        </mxCell>
        <mxCell id="Zy6eCbC35qxuOklVpRWe-9" value="&lt;p style=&quot;box-sizing: border-box; margin: 0px; padding: 0px; color: rgb(16, 18, 20); font-size: var(--main-font-size); line-height: 21px; text-size-adjust: auto;&quot; class=&quot;tgt color_text_0 un-step-trans&quot; data-section=&quot;0&quot;&gt;&lt;font face=&quot;Times New Roman&quot;&gt;- 200 participants&lt;/font&gt;&lt;/p&gt;" style="text;strokeColor=none;fillColor=none;align=left;verticalAlign=middle;spacingLeft=4;spacingRight=4;overflow=hidden;points=[[0,0.5],[1,0.5]];portConstraint=eastwest;rotatable=0;whiteSpace=wrap;html=1;" vertex="1" parent="Zy6eCbC35qxuOklVpRWe-8">
          <mxGeometry y="30" width="180" height="20" as="geometry" />
        </mxCell>
        <mxCell id="Zy6eCbC35qxuOklVpRWe-10" value="&lt;p style=&quot;border-color: var(--border-color); font-size: var(--main-font-size); box-sizing: border-box; margin: 0px; padding: 0px; color: rgb(16, 18, 20); line-height: 21px; text-size-adjust: auto;&quot; class=&quot;tgt color_text_0 un-step-trans&quot; data-section=&quot;1&quot;&gt;&lt;font face=&quot;Times New Roman&quot;&gt;- Anonymous questionnaire&lt;/font&gt;&lt;/p&gt;" style="text;strokeColor=none;fillColor=none;align=left;verticalAlign=middle;spacingLeft=4;spacingRight=4;overflow=hidden;points=[[0,0.5],[1,0.5]];portConstraint=eastwest;rotatable=0;whiteSpace=wrap;html=1;" vertex="1" parent="Zy6eCbC35qxuOklVpRWe-8">
          <mxGeometry y="50" width="180" height="30" as="geometry" />
        </mxCell>
        <mxCell id="Zy6eCbC35qxuOklVpRWe-11" value="&lt;font face=&quot;Times New Roman&quot;&gt;- Screenshot comment section&lt;/font&gt;" style="text;strokeColor=none;fillColor=none;align=left;verticalAlign=middle;spacingLeft=4;spacingRight=4;overflow=hidden;points=[[0,0.5],[1,0.5]];portConstraint=eastwest;rotatable=0;whiteSpace=wrap;html=1;" vertex="1" parent="Zy6eCbC35qxuOklVpRWe-8">
          <mxGeometry y="80" width="180" height="20" as="geometry" />
        </mxCell>
        <mxCell id="Zy6eCbC35qxuOklVpRWe-13" value="&lt;h4 style=&quot;margin: 14pt 0cm 14.5pt; line-height: 29.12px; break-after: avoid; text-align: start;&quot;&gt;&lt;font style=&quot;font-size: 16px;&quot; face=&quot;Times New Roman&quot;&gt;Feature Extraction&lt;/font&gt;&lt;/h4&gt;" style="swimlane;whiteSpace=wrap;html=1;" vertex="1" parent="1">
          <mxGeometry x="670" y="100" width="200" height="200" as="geometry" />
        </mxCell>
        <mxCell id="Zy6eCbC35qxuOklVpRWe-14" value="&lt;b style=&quot;text-align: start;&quot;&gt;&lt;font face=&quot;Times New Roman&quot; style=&quot;font-size: 14px;&quot;&gt;Textual Features&lt;/font&gt;&lt;/b&gt;&lt;span style=&quot;font-size: medium; text-align: start;&quot;&gt;&lt;/span&gt;" style="rounded=0;whiteSpace=wrap;html=1;" vertex="1" parent="Zy6eCbC35qxuOklVpRWe-13">
          <mxGeometry x="24" y="40" width="150" height="40" as="geometry" />
        </mxCell>
        <mxCell id="Zy6eCbC35qxuOklVpRWe-16" value="&lt;b style=&quot;text-align: start;&quot;&gt;&lt;font face=&quot;Times New Roman&quot; style=&quot;font-size: 14px;&quot;&gt;Interaction Features&lt;/font&gt;&lt;/b&gt;&lt;span style=&quot;font-size: medium; text-align: start;&quot;&gt;&lt;/span&gt;" style="rounded=0;whiteSpace=wrap;html=1;" vertex="1" parent="Zy6eCbC35qxuOklVpRWe-13">
          <mxGeometry x="25" y="140" width="150" height="40" as="geometry" />
        </mxCell>
        <mxCell id="Zy6eCbC35qxuOklVpRWe-15" value="&lt;b style=&quot;text-align: start;&quot;&gt;&lt;font face=&quot;Times New Roman&quot; style=&quot;font-size: 14px;&quot;&gt;Ordering Features&lt;/font&gt;&lt;/b&gt;&lt;span style=&quot;font-size: medium; text-align: start;&quot;&gt;&lt;/span&gt;" style="rounded=0;whiteSpace=wrap;html=1;" vertex="1" parent="Zy6eCbC35qxuOklVpRWe-13">
          <mxGeometry x="25" y="90" width="150" height="40" as="geometry" />
        </mxCell>
        <mxCell id="Zy6eCbC35qxuOklVpRWe-17" value="&lt;h4 style=&quot;margin: 14pt 0cm 14.5pt; line-height: 29.12px; break-after: avoid; text-align: start;&quot;&gt;&lt;font style=&quot;font-size: 16px;&quot; face=&quot;Times New Roman&quot;&gt;Data Synthesis&lt;/font&gt;&lt;br&gt;&lt;/h4&gt;" style="swimlane;whiteSpace=wrap;html=1;" vertex="1" parent="1">
          <mxGeometry x="930" y="100" width="200" height="200" as="geometry" />
        </mxCell>
        <mxCell id="Zy6eCbC35qxuOklVpRWe-18" value="&lt;font style=&quot;font-size: 14px;&quot; face=&quot;Times New Roman&quot;&gt;&lt;b&gt;User characteristics&lt;/b&gt;&lt;/font&gt;" style="rounded=0;whiteSpace=wrap;html=1;" vertex="1" parent="Zy6eCbC35qxuOklVpRWe-17">
          <mxGeometry x="24" y="40" width="150" height="40" as="geometry" />
        </mxCell>
        <mxCell id="Zy6eCbC35qxuOklVpRWe-19" value="&lt;ul style=&quot;box-sizing: border-box; text-align: start; text-size-adjust: auto;&quot;&gt;&lt;li style=&quot;box-sizing: border-box; margin: 0px; padding: 0px; list-style: none;&quot;&gt;&lt;font style=&quot;font-size: 14px;&quot; face=&quot;Times New Roman&quot; color=&quot;#2a2b2e&quot;&gt;&lt;b&gt;Simulated ordering&lt;/b&gt;&lt;/font&gt;&lt;br&gt;&lt;/li&gt;&lt;/ul&gt;" style="rounded=0;whiteSpace=wrap;html=1;" vertex="1" parent="Zy6eCbC35qxuOklVpRWe-17">
          <mxGeometry x="25" y="140" width="150" height="40" as="geometry" />
        </mxCell>
        <mxCell id="Zy6eCbC35qxuOklVpRWe-20" value="&lt;b style=&quot;text-align: start;&quot;&gt;&lt;font face=&quot;Times New Roman&quot; style=&quot;font-size: 14px;&quot;&gt;Comment texts&lt;/font&gt;&lt;/b&gt;&lt;span style=&quot;font-size: medium; text-align: start;&quot;&gt;&lt;/span&gt;" style="rounded=0;whiteSpace=wrap;html=1;" vertex="1" parent="Zy6eCbC35qxuOklVpRWe-17">
          <mxGeometry x="25" y="90" width="150" height="40" as="geometry" />
        </mxCell>
        <mxCell id="Zy6eCbC35qxuOklVpRWe-21" value="&lt;font style=&quot;font-size: 16px;&quot; face=&quot;Times New Roman&quot;&gt;Data Analysis&lt;/font&gt;&lt;span style=&quot;font-size: medium; font-weight: 400; text-align: start;&quot;&gt;&lt;/span&gt;" style="swimlane;whiteSpace=wrap;html=1;" vertex="1" parent="1">
          <mxGeometry x="1191" y="100" width="200" height="200" as="geometry" />
        </mxCell>
        <mxCell id="Zy6eCbC35qxuOklVpRWe-24" value="&lt;font face=&quot;Times New Roman&quot; style=&quot;font-size: 14px;&quot;&gt;&lt;b&gt;Integrated Feature Set&lt;/b&gt;&lt;/font&gt;" style="rounded=0;whiteSpace=wrap;html=1;" vertex="1" parent="Zy6eCbC35qxuOklVpRWe-21">
          <mxGeometry x="20" y="40" width="160" height="40" as="geometry" />
        </mxCell>
        <mxCell id="Zy6eCbC35qxuOklVpRWe-25" value="&lt;font style=&quot;font-size: 14px;&quot; face=&quot;Times New Roman&quot;&gt;&lt;b&gt;Select location-sensitive&amp;nbsp; model&lt;/b&gt;&lt;/font&gt;" style="rounded=0;whiteSpace=wrap;html=1;" vertex="1" parent="Zy6eCbC35qxuOklVpRWe-21">
          <mxGeometry x="20" y="90" width="160" height="50" as="geometry" />
        </mxCell>
        <mxCell id="Zy6eCbC35qxuOklVpRWe-26" value="&lt;b style=&quot;text-align: start;&quot;&gt;&lt;font face=&quot;Times New Roman&quot; style=&quot;font-size: 14px;&quot;&gt;Training and Validation&lt;/font&gt;&lt;/b&gt;&lt;span style=&quot;font-size: medium; text-align: start;&quot;&gt;&lt;/span&gt;" style="rounded=0;whiteSpace=wrap;html=1;" vertex="1" parent="Zy6eCbC35qxuOklVpRWe-21">
          <mxGeometry x="20" y="150" width="160" height="40" as="geometry" />
        </mxCell>
        <mxCell id="Zy6eCbC35qxuOklVpRWe-27" value="" style="shape=flexArrow;endArrow=classic;html=1;rounded=0;" edge="1" parent="1">
          <mxGeometry width="50" height="50" relative="1" as="geometry">
            <mxPoint x="350" y="210" as="sourcePoint" />
            <mxPoint x="410" y="210" as="targetPoint" />
          </mxGeometry>
        </mxCell>
        <mxCell id="Zy6eCbC35qxuOklVpRWe-28" value="" style="shape=flexArrow;endArrow=classic;html=1;rounded=0;" edge="1" parent="1">
          <mxGeometry width="50" height="50" relative="1" as="geometry">
            <mxPoint x="610" y="210" as="sourcePoint" />
            <mxPoint x="670" y="210" as="targetPoint" />
          </mxGeometry>
        </mxCell>
        <mxCell id="Zy6eCbC35qxuOklVpRWe-29" value="" style="shape=flexArrow;endArrow=classic;html=1;rounded=0;" edge="1" parent="1">
          <mxGeometry width="50" height="50" relative="1" as="geometry">
            <mxPoint x="870" y="210" as="sourcePoint" />
            <mxPoint x="930" y="210" as="targetPoint" />
          </mxGeometry>
        </mxCell>
        <mxCell id="Zy6eCbC35qxuOklVpRWe-30" value="" style="shape=flexArrow;endArrow=classic;html=1;rounded=0;" edge="1" parent="1">
          <mxGeometry width="50" height="50" relative="1" as="geometry">
            <mxPoint x="1130" y="210" as="sourcePoint" />
            <mxPoint x="1190" y="210" as="targetPoint" />
          </mxGeometry>
        </mxCell>
        <mxCell id="Zy6eCbC35qxuOklVpRWe-64" value="&lt;h4 style=&quot;margin: 14pt 0cm 14.5pt; line-height: 29.12px; break-after: avoid; text-align: start;&quot;&gt;&lt;font style=&quot;font-size: 16px;&quot; face=&quot;Times New Roman&quot;&gt;Data Collection&lt;/font&gt;&lt;/h4&gt;&lt;h4 style=&quot;margin: 14pt 0cm 14.5pt; line-height: 29.12px; break-after: avoid; font-size: 14pt; font-family: &amp;quot;等线 Light&amp;quot;; text-align: start;&quot;&gt;&lt;/h4&gt;" style="swimlane;whiteSpace=wrap;html=1;verticalAlign=middle;" vertex="1" parent="1">
          <mxGeometry x="160" y="355" width="310" height="195" as="geometry" />
        </mxCell>
        <mxCell id="Zy6eCbC35qxuOklVpRWe-89" value="&lt;b style=&quot;text-align: start;&quot;&gt;&lt;font style=&quot;font-size: 14px;&quot; face=&quot;Times New Roman&quot;&gt;Crawler Strategy Development&lt;/font&gt;&lt;/b&gt;&lt;span style=&quot;font-size: medium; text-align: start;&quot;&gt;&lt;/span&gt;" style="rounded=0;whiteSpace=wrap;html=1;" vertex="1" parent="Zy6eCbC35qxuOklVpRWe-64">
          <mxGeometry x="15" y="89" width="110" height="50" as="geometry" />
        </mxCell>
        <mxCell id="Zy6eCbC35qxuOklVpRWe-90" value="&lt;b style=&quot;text-align: start;&quot;&gt;&lt;font face=&quot;Times New Roman&quot; style=&quot;font-size: 14px;&quot;&gt;Keywords&lt;/font&gt;&lt;/b&gt;&lt;span style=&quot;font-size: medium; text-align: start;&quot;&gt;&lt;/span&gt;" style="rounded=0;whiteSpace=wrap;html=1;" vertex="1" parent="Zy6eCbC35qxuOklVpRWe-64">
          <mxGeometry x="215" y="39" width="80" height="40" as="geometry" />
        </mxCell>
        <mxCell id="Zy6eCbC35qxuOklVpRWe-91" value="&lt;b style=&quot;text-align: start;&quot;&gt;&lt;font style=&quot;font-size: 14px;&quot; face=&quot;Times New Roman&quot;&gt;Platforms&lt;/font&gt;&lt;/b&gt;&lt;span style=&quot;font-size: medium; text-align: start;&quot;&gt;&lt;/span&gt;" style="rounded=0;whiteSpace=wrap;html=1;" vertex="1" parent="Zy6eCbC35qxuOklVpRWe-64">
          <mxGeometry x="215" y="139" width="80" height="40" as="geometry" />
        </mxCell>
        <mxCell id="Zy6eCbC35qxuOklVpRWe-94" value="" style="endArrow=classic;html=1;rounded=0;exitX=1;exitY=0.5;exitDx=0;exitDy=0;" edge="1" parent="Zy6eCbC35qxuOklVpRWe-64" source="Zy6eCbC35qxuOklVpRWe-89">
          <mxGeometry relative="1" as="geometry">
            <mxPoint x="125" y="99" as="sourcePoint" />
            <mxPoint x="215" y="59" as="targetPoint" />
          </mxGeometry>
        </mxCell>
        <mxCell id="Zy6eCbC35qxuOklVpRWe-95" value="selection" style="edgeLabel;resizable=0;html=1;align=center;verticalAlign=middle;" connectable="0" vertex="1" parent="Zy6eCbC35qxuOklVpRWe-94">
          <mxGeometry relative="1" as="geometry" />
        </mxCell>
        <mxCell id="Zy6eCbC35qxuOklVpRWe-100" value="" style="endArrow=classic;html=1;rounded=0;entryX=0;entryY=0.5;entryDx=0;entryDy=0;exitX=1;exitY=0.5;exitDx=0;exitDy=0;" edge="1" parent="Zy6eCbC35qxuOklVpRWe-64" source="Zy6eCbC35qxuOklVpRWe-89" target="Zy6eCbC35qxuOklVpRWe-91">
          <mxGeometry relative="1" as="geometry">
            <mxPoint x="125" y="109" as="sourcePoint" />
            <mxPoint x="205" y="169" as="targetPoint" />
          </mxGeometry>
        </mxCell>
        <mxCell id="Zy6eCbC35qxuOklVpRWe-101" value="selection" style="edgeLabel;resizable=0;html=1;align=center;verticalAlign=middle;" connectable="0" vertex="1" parent="Zy6eCbC35qxuOklVpRWe-100">
          <mxGeometry relative="1" as="geometry" />
        </mxCell>
        <mxCell id="Zy6eCbC35qxuOklVpRWe-81" value="&lt;font style=&quot;font-size: 16px;&quot; face=&quot;Times New Roman&quot;&gt;Data Preprocessing&lt;/font&gt;&lt;span style=&quot;font-size: medium; font-weight: 400; text-align: start;&quot;&gt;&lt;/span&gt;" style="swimlane;whiteSpace=wrap;html=1;" vertex="1" parent="1">
          <mxGeometry x="530" y="350" width="220" height="200" as="geometry" />
        </mxCell>
        <mxCell id="Zy6eCbC35qxuOklVpRWe-74" value="&lt;b style=&quot;&quot;&gt;&lt;font style=&quot;font-size: 14px;&quot; face=&quot;Times New Roman&quot;&gt;Image Processing:&amp;nbsp;&lt;/font&gt;&lt;/b&gt;&lt;span style=&quot;font-size: medium;&quot;&gt;&lt;/span&gt;&lt;font face=&quot;Times New Roman&quot;&gt;ResNet-18;OCR&lt;/font&gt;" style="rounded=0;whiteSpace=wrap;html=1;align=center;" vertex="1" parent="Zy6eCbC35qxuOklVpRWe-81">
          <mxGeometry x="10" y="50" width="200" height="20" as="geometry" />
        </mxCell>
        <mxCell id="Zy6eCbC35qxuOklVpRWe-75" value="&lt;b style=&quot;text-align: start;&quot;&gt;&lt;font style=&quot;font-size: 14px;&quot; face=&quot;Times New Roman&quot;&gt;Text Filtering:&amp;nbsp;&lt;/font&gt;&lt;/b&gt;&lt;span style=&quot;text-align: start;&quot;&gt;&lt;/span&gt;&lt;font face=&quot;Times New Roman&quot; style=&quot;font-size: 12px;&quot;&gt;Chinese BERT&lt;/font&gt;&lt;span style=&quot;font-size: medium; text-align: start;&quot;&gt;&lt;/span&gt;" style="rounded=0;whiteSpace=wrap;html=1;" vertex="1" parent="Zy6eCbC35qxuOklVpRWe-81">
          <mxGeometry x="10" y="160" width="200" height="20" as="geometry" />
        </mxCell>
        <mxCell id="Zy6eCbC35qxuOklVpRWe-76" value="&lt;b style=&quot;text-align: start;&quot;&gt;&lt;font style=&quot;font-size: 14px;&quot; face=&quot;Times New Roman&quot;&gt;Text Preprocessing&lt;/font&gt;&lt;/b&gt;&lt;span style=&quot;font-size: medium; text-align: start;&quot;&gt;&lt;/span&gt;" style="rounded=0;whiteSpace=wrap;html=1;" vertex="1" parent="Zy6eCbC35qxuOklVpRWe-81">
          <mxGeometry x="10" y="105" width="200" height="20" as="geometry" />
        </mxCell>
        <mxCell id="Zy6eCbC35qxuOklVpRWe-110" value="" style="endArrow=classic;html=1;rounded=0;entryX=0.5;entryY=0;entryDx=0;entryDy=0;exitX=0.5;exitY=1;exitDx=0;exitDy=0;" edge="1" parent="Zy6eCbC35qxuOklVpRWe-81" source="Zy6eCbC35qxuOklVpRWe-76" target="Zy6eCbC35qxuOklVpRWe-75">
          <mxGeometry width="50" height="50" relative="1" as="geometry">
            <mxPoint x="40" y="120" as="sourcePoint" />
            <mxPoint x="90" y="70" as="targetPoint" />
          </mxGeometry>
        </mxCell>
        <mxCell id="Zy6eCbC35qxuOklVpRWe-111" value="" style="endArrow=classic;html=1;rounded=0;entryX=0.5;entryY=0;entryDx=0;entryDy=0;exitX=0.5;exitY=1;exitDx=0;exitDy=0;" edge="1" parent="Zy6eCbC35qxuOklVpRWe-81" source="Zy6eCbC35qxuOklVpRWe-74" target="Zy6eCbC35qxuOklVpRWe-76">
          <mxGeometry width="50" height="50" relative="1" as="geometry">
            <mxPoint x="110" y="70" as="sourcePoint" />
            <mxPoint x="109.80999999999995" y="105" as="targetPoint" />
          </mxGeometry>
        </mxCell>
        <mxCell id="Zy6eCbC35qxuOklVpRWe-85" value="" style="shape=flexArrow;endArrow=classic;html=1;rounded=0;" edge="1" parent="1">
          <mxGeometry width="50" height="50" relative="1" as="geometry">
            <mxPoint x="470" y="465" as="sourcePoint" />
            <mxPoint x="530" y="465" as="targetPoint" />
          </mxGeometry>
        </mxCell>
        <mxCell id="Zy6eCbC35qxuOklVpRWe-88" value="" style="shape=flexArrow;endArrow=classic;html=1;rounded=0;" edge="1" parent="1">
          <mxGeometry width="50" height="50" relative="1" as="geometry">
            <mxPoint x="750" y="465" as="sourcePoint" />
            <mxPoint x="810" y="465" as="targetPoint" />
          </mxGeometry>
        </mxCell>
        <mxCell id="Zy6eCbC35qxuOklVpRWe-112" value="&lt;font style=&quot;font-size: 16px;&quot; face=&quot;Times New Roman&quot;&gt;Data Analysis&lt;/font&gt;&lt;span style=&quot;font-size: medium; font-weight: 400; text-align: start;&quot;&gt;&lt;/span&gt;" style="swimlane;whiteSpace=wrap;html=1;" vertex="1" parent="1">
          <mxGeometry x="810" y="350" width="200" height="200" as="geometry" />
        </mxCell>
        <mxCell id="Zy6eCbC35qxuOklVpRWe-113" value="&lt;b style=&quot;text-align: start;&quot;&gt;&lt;font style=&quot;font-size: 14px;&quot; face=&quot;Times New Roman&quot;&gt;Topic Modeling&lt;/font&gt;&lt;/b&gt;&lt;span style=&quot;font-size: medium; text-align: start;&quot;&gt;&lt;/span&gt;" style="rounded=0;whiteSpace=wrap;html=1;" vertex="1" parent="Zy6eCbC35qxuOklVpRWe-112">
          <mxGeometry x="20" y="50" width="160" height="40" as="geometry" />
        </mxCell>
        <mxCell id="Zy6eCbC35qxuOklVpRWe-114" value="&lt;b style=&quot;text-align: start;&quot;&gt;&lt;font style=&quot;font-size: 14px;&quot; face=&quot;Times New Roman&quot;&gt;Sentiment Analysis&lt;/font&gt;&lt;/b&gt;&lt;span style=&quot;font-size: medium; text-align: start;&quot;&gt;&lt;/span&gt;" style="rounded=0;whiteSpace=wrap;html=1;" vertex="1" parent="Zy6eCbC35qxuOklVpRWe-112">
          <mxGeometry x="20" y="130" width="160" height="40" as="geometry" />
        </mxCell>
        <mxCell id="Zy6eCbC35qxuOklVpRWe-116" value="&lt;font style=&quot;font-size: 16px;&quot;&gt;ABD&lt;/font&gt;" style="text;html=1;strokeColor=none;fillColor=none;align=center;verticalAlign=middle;whiteSpace=wrap;rounded=0;" vertex="1" parent="1">
          <mxGeometry x="840" y="970" width="60" height="20" as="geometry" />
        </mxCell>
        <mxCell id="Zy6eCbC35qxuOklVpRWe-117" value="A" style="shape=umlActor;verticalLabelPosition=bottom;verticalAlign=top;html=1;outlineConnect=0;" vertex="1" parent="1">
          <mxGeometry x="1040" y="780" width="20" height="30" as="geometry" />
        </mxCell>
        <mxCell id="Zy6eCbC35qxuOklVpRWe-118" value="B" style="shape=umlActor;verticalLabelPosition=bottom;verticalAlign=top;html=1;outlineConnect=0;" vertex="1" parent="1">
          <mxGeometry x="1040" y="960" width="20" height="30" as="geometry" />
        </mxCell>
        <mxCell id="Zy6eCbC35qxuOklVpRWe-119" value="C" style="shape=umlActor;verticalLabelPosition=bottom;verticalAlign=top;html=1;outlineConnect=0;" vertex="1" parent="1">
          <mxGeometry x="990" y="1088" width="20" height="30" as="geometry" />
        </mxCell>
        <mxCell id="Zy6eCbC35qxuOklVpRWe-127" value="" style="shape=curlyBracket;whiteSpace=wrap;html=1;rounded=1;labelPosition=left;verticalLabelPosition=middle;align=right;verticalAlign=middle;" vertex="1" parent="1">
          <mxGeometry x="900" y="865" width="20" height="235" as="geometry" />
        </mxCell>
        <mxCell id="Zy6eCbC35qxuOklVpRWe-137" value="&lt;b style=&quot;text-align: start;&quot;&gt;&lt;font face=&quot;Times New Roman&quot; style=&quot;font-size: 14px;&quot;&gt;Experimental groups&lt;/font&gt;&lt;/b&gt;&lt;span style=&quot;font-size: medium; text-align: start;&quot;&gt;&lt;/span&gt;" style="text;html=1;strokeColor=none;fillColor=none;align=center;verticalAlign=middle;whiteSpace=wrap;rounded=0;" vertex="1" parent="1">
          <mxGeometry x="940" y="860" width="60" height="30" as="geometry" />
        </mxCell>
        <mxCell id="Zy6eCbC35qxuOklVpRWe-139" value="&lt;b style=&quot;text-align: start;&quot;&gt;&lt;font style=&quot;font-size: 14px;&quot; face=&quot;Times New Roman&quot;&gt;Control group&lt;/font&gt;&lt;/b&gt;&lt;span style=&quot;font-size: medium; text-align: start;&quot;&gt;&lt;/span&gt;" style="text;html=1;strokeColor=none;fillColor=none;align=center;verticalAlign=middle;whiteSpace=wrap;rounded=0;" vertex="1" parent="1">
          <mxGeometry x="920" y="1088" width="60" height="30" as="geometry" />
        </mxCell>
        <mxCell id="Zy6eCbC35qxuOklVpRWe-141" value="&lt;h1&gt;&lt;font face=&quot;Times New Roman&quot;&gt;&lt;b style=&quot;font-size: medium;&quot;&gt;Video selection&lt;/b&gt;&lt;span style=&quot;font-size: medium; font-weight: 400;&quot;&gt;&lt;/span&gt;&lt;br&gt;&lt;/font&gt;&lt;/h1&gt;&lt;p&gt;&lt;font style=&quot;font-size: 12px;&quot; face=&quot;Times New Roman&quot;&gt;- select 50 conflictive video and divided evenly into 2 groups&lt;/font&gt;&lt;/p&gt;&lt;font style=&quot;font-size: 12px;&quot; face=&quot;Times New Roman&quot;&gt;- Select 10 test videos&lt;/font&gt;" style="text;html=1;strokeColor=none;fillColor=none;spacing=5;spacingTop=-20;whiteSpace=wrap;overflow=hidden;rounded=0;" vertex="1" parent="1">
          <mxGeometry x="827" y="650" width="360" height="100" as="geometry" />
        </mxCell>
        <mxCell id="Zy6eCbC35qxuOklVpRWe-146" value="&lt;b style=&quot;text-align: start;&quot;&gt;&lt;font style=&quot;font-size: 12px;&quot; face=&quot;Times New Roman&quot;&gt;The first stage&lt;/font&gt;&lt;/b&gt;&lt;span style=&quot;font-size: medium; text-align: start;&quot;&gt;&lt;/span&gt;" style="text;html=1;align=center;verticalAlign=middle;resizable=0;points=[];autosize=1;strokeColor=none;fillColor=none;" vertex="1" parent="1">
          <mxGeometry x="1120" y="1169" width="100" height="30" as="geometry" />
        </mxCell>
        <mxCell id="Zy6eCbC35qxuOklVpRWe-154" value="" style="strokeWidth=2;html=1;shape=mxgraph.flowchart.annotation_1;align=left;pointerEvents=1;" vertex="1" parent="1">
          <mxGeometry x="1020.3" y="795" width="10" height="185" as="geometry" />
        </mxCell>
        <mxCell id="Zy6eCbC35qxuOklVpRWe-157" value="" style="endArrow=none;dashed=1;html=1;rounded=0;entryX=0.684;entryY=1.019;entryDx=0;entryDy=0;entryPerimeter=0;" edge="1" parent="1" target="Zy6eCbC35qxuOklVpRWe-141">
          <mxGeometry width="50" height="50" relative="1" as="geometry">
            <mxPoint x="1073" y="1150" as="sourcePoint" />
            <mxPoint x="1080" y="910" as="targetPoint" />
          </mxGeometry>
        </mxCell>
        <mxCell id="Zy6eCbC35qxuOklVpRWe-177" value="&lt;font face=&quot;Times New Roman&quot;&gt;Collect test video comments section&lt;/font&gt;" style="rounded=0;whiteSpace=wrap;html=1;" vertex="1" parent="1">
          <mxGeometry x="1088" y="1098" width="182" height="20" as="geometry" />
        </mxCell>
        <mxCell id="Zy6eCbC35qxuOklVpRWe-178" value="&lt;font face=&quot;Times New Roman&quot;&gt;Collect test video comments section&lt;/font&gt;" style="rounded=0;whiteSpace=wrap;html=1;" vertex="1" parent="1">
          <mxGeometry x="1088" y="970" width="179" height="20" as="geometry" />
        </mxCell>
        <mxCell id="Zy6eCbC35qxuOklVpRWe-179" value="&lt;font face=&quot;Times New Roman&quot;&gt;Collect test video comments section&lt;/font&gt;" style="rounded=0;whiteSpace=wrap;html=1;" vertex="1" parent="1">
          <mxGeometry x="1088" y="790" width="179" height="20" as="geometry" />
        </mxCell>
        <mxCell id="Zy6eCbC35qxuOklVpRWe-184" value="control" style="swimlane;whiteSpace=wrap;html=1;" vertex="1" parent="1">
          <mxGeometry x="1310" y="1053" width="200" height="100" as="geometry" />
        </mxCell>
        <mxCell id="Zy6eCbC35qxuOklVpRWe-186" value="&lt;font face=&quot;Times New Roman&quot;&gt;Collect test video comments section&lt;/font&gt;" style="rounded=0;whiteSpace=wrap;html=1;" vertex="1" parent="Zy6eCbC35qxuOklVpRWe-184">
          <mxGeometry x="11.5" y="71" width="179" height="20" as="geometry" />
        </mxCell>
        <mxCell id="Zy6eCbC35qxuOklVpRWe-187" value="&lt;font face=&quot;Times New Roman&quot;&gt;Watch videos（video group 1&lt;/font&gt;)" style="rounded=0;whiteSpace=wrap;html=1;" vertex="1" parent="Zy6eCbC35qxuOklVpRWe-184">
          <mxGeometry x="9.5" y="30" width="181" height="20" as="geometry" />
        </mxCell>
        <mxCell id="Zy6eCbC35qxuOklVpRWe-189" value="" style="endArrow=classic;html=1;rounded=0;" edge="1" parent="Zy6eCbC35qxuOklVpRWe-184">
          <mxGeometry width="50" height="50" relative="1" as="geometry">
            <mxPoint x="100.73999999999978" y="50" as="sourcePoint" />
            <mxPoint x="100.61999999999989" y="70" as="targetPoint" />
          </mxGeometry>
        </mxCell>
        <mxCell id="Zy6eCbC35qxuOklVpRWe-190" value="non-mild&amp;nbsp;" style="swimlane;whiteSpace=wrap;html=1;" vertex="1" parent="1">
          <mxGeometry x="1581" y="890" width="199" height="140" as="geometry" />
        </mxCell>
        <mxCell id="Zy6eCbC35qxuOklVpRWe-191" value="&lt;font face=&quot;Times New Roman&quot;&gt;Post&amp;nbsp;non-mild comments&lt;/font&gt;&lt;span style=&quot;font-size: medium; text-align: start;&quot;&gt;&lt;/span&gt;" style="whiteSpace=wrap;html=1;" vertex="1" parent="Zy6eCbC35qxuOklVpRWe-190">
          <mxGeometry x="9" y="70" width="181" height="20" as="geometry" />
        </mxCell>
        <mxCell id="Zy6eCbC35qxuOklVpRWe-192" value="&lt;font face=&quot;Times New Roman&quot;&gt;Collect test video comments section&lt;/font&gt;" style="rounded=0;whiteSpace=wrap;html=1;" vertex="1" parent="Zy6eCbC35qxuOklVpRWe-190">
          <mxGeometry x="11" y="110" width="179" height="20" as="geometry" />
        </mxCell>
        <mxCell id="Zy6eCbC35qxuOklVpRWe-193" value="&lt;font face=&quot;Times New Roman&quot; style=&quot;font-size: 11px;&quot;&gt;&lt;font style=&quot;font-size: 11px;&quot;&gt;Watch videos&lt;/font&gt;（video group 2)&lt;/font&gt;" style="rounded=0;whiteSpace=wrap;html=1;" vertex="1" parent="Zy6eCbC35qxuOklVpRWe-190">
          <mxGeometry x="9" y="30" width="181" height="20" as="geometry" />
        </mxCell>
        <mxCell id="Zy6eCbC35qxuOklVpRWe-194" value="" style="endArrow=classic;html=1;rounded=0;" edge="1" parent="Zy6eCbC35qxuOklVpRWe-190">
          <mxGeometry width="50" height="50" relative="1" as="geometry">
            <mxPoint x="100.11999999999989" y="50" as="sourcePoint" />
            <mxPoint x="100" y="70" as="targetPoint" />
          </mxGeometry>
        </mxCell>
        <mxCell id="Zy6eCbC35qxuOklVpRWe-195" value="" style="endArrow=classic;html=1;rounded=0;" edge="1" parent="Zy6eCbC35qxuOklVpRWe-190">
          <mxGeometry width="50" height="50" relative="1" as="geometry">
            <mxPoint x="99.23999999999978" y="90" as="sourcePoint" />
            <mxPoint x="99.11999999999989" y="110" as="targetPoint" />
          </mxGeometry>
        </mxCell>
        <mxCell id="Zy6eCbC35qxuOklVpRWe-196" value="mild" style="swimlane;whiteSpace=wrap;html=1;" vertex="1" parent="1">
          <mxGeometry x="1581" y="720" width="199" height="140" as="geometry" />
        </mxCell>
        <mxCell id="Zy6eCbC35qxuOklVpRWe-197" value="&lt;font face=&quot;Times New Roman&quot;&gt;Post mild comments&lt;/font&gt;&lt;span style=&quot;font-size: medium; text-align: start;&quot;&gt;&lt;/span&gt;" style="whiteSpace=wrap;html=1;" vertex="1" parent="Zy6eCbC35qxuOklVpRWe-196">
          <mxGeometry x="9.5" y="71" width="181" height="20" as="geometry" />
        </mxCell>
        <mxCell id="Zy6eCbC35qxuOklVpRWe-198" value="&lt;font face=&quot;Times New Roman&quot;&gt;Collect test video comments section&lt;/font&gt;" style="rounded=0;whiteSpace=wrap;html=1;" vertex="1" parent="Zy6eCbC35qxuOklVpRWe-196">
          <mxGeometry x="11.5" y="111" width="179" height="20" as="geometry" />
        </mxCell>
        <mxCell id="Zy6eCbC35qxuOklVpRWe-199" value="&lt;font face=&quot;Times New Roman&quot; style=&quot;font-size: 12px;&quot;&gt;&lt;font style=&quot;font-size: 12px;&quot;&gt;Watch videos&lt;/font&gt;（video group 2)&lt;/font&gt;" style="rounded=0;whiteSpace=wrap;html=1;" vertex="1" parent="Zy6eCbC35qxuOklVpRWe-196">
          <mxGeometry x="9.5" y="31" width="181" height="20" as="geometry" />
        </mxCell>
        <mxCell id="Zy6eCbC35qxuOklVpRWe-200" value="" style="endArrow=classic;html=1;rounded=0;" edge="1" parent="Zy6eCbC35qxuOklVpRWe-196">
          <mxGeometry width="50" height="50" relative="1" as="geometry">
            <mxPoint x="100.61999999999989" y="51" as="sourcePoint" />
            <mxPoint x="100.5" y="71" as="targetPoint" />
          </mxGeometry>
        </mxCell>
        <mxCell id="Zy6eCbC35qxuOklVpRWe-201" value="" style="endArrow=classic;html=1;rounded=0;" edge="1" parent="Zy6eCbC35qxuOklVpRWe-196">
          <mxGeometry width="50" height="50" relative="1" as="geometry">
            <mxPoint x="99.73999999999978" y="91" as="sourcePoint" />
            <mxPoint x="99.61999999999989" y="111" as="targetPoint" />
          </mxGeometry>
        </mxCell>
        <mxCell id="Zy6eCbC35qxuOklVpRWe-202" value="control" style="swimlane;whiteSpace=wrap;html=1;" vertex="1" parent="1">
          <mxGeometry x="1581" y="1053" width="199" height="100" as="geometry" />
        </mxCell>
        <mxCell id="Zy6eCbC35qxuOklVpRWe-203" value="&lt;font face=&quot;Times New Roman&quot;&gt;Collect test video comments section&lt;/font&gt;" style="rounded=0;whiteSpace=wrap;html=1;" vertex="1" parent="Zy6eCbC35qxuOklVpRWe-202">
          <mxGeometry x="11.5" y="71" width="179" height="20" as="geometry" />
        </mxCell>
        <mxCell id="Zy6eCbC35qxuOklVpRWe-204" value="&lt;font face=&quot;Times New Roman&quot;&gt;Watch videos（video group 2)&lt;br&gt;&lt;/font&gt;" style="rounded=0;whiteSpace=wrap;html=1;" vertex="1" parent="Zy6eCbC35qxuOklVpRWe-202">
          <mxGeometry x="9.5" y="30" width="181" height="20" as="geometry" />
        </mxCell>
        <mxCell id="Zy6eCbC35qxuOklVpRWe-205" value="" style="endArrow=classic;html=1;rounded=0;" edge="1" parent="Zy6eCbC35qxuOklVpRWe-202">
          <mxGeometry width="50" height="50" relative="1" as="geometry">
            <mxPoint x="100.73999999999978" y="50" as="sourcePoint" />
            <mxPoint x="100.61999999999989" y="70" as="targetPoint" />
          </mxGeometry>
        </mxCell>
        <mxCell id="Zy6eCbC35qxuOklVpRWe-206" value="non-mild&amp;nbsp;" style="swimlane;whiteSpace=wrap;html=1;" vertex="1" parent="1">
          <mxGeometry x="1310" y="720" width="199" height="140" as="geometry" />
        </mxCell>
        <mxCell id="Zy6eCbC35qxuOklVpRWe-207" value="&lt;font face=&quot;Times New Roman&quot;&gt;Post&amp;nbsp;non-mild comments&lt;/font&gt;&lt;span style=&quot;font-size: medium; text-align: start;&quot;&gt;&lt;/span&gt;" style="whiteSpace=wrap;html=1;" vertex="1" parent="Zy6eCbC35qxuOklVpRWe-206">
          <mxGeometry x="9" y="70" width="181" height="20" as="geometry" />
        </mxCell>
        <mxCell id="Zy6eCbC35qxuOklVpRWe-208" value="&lt;font face=&quot;Times New Roman&quot;&gt;Collect test video comments section&lt;/font&gt;" style="rounded=0;whiteSpace=wrap;html=1;" vertex="1" parent="Zy6eCbC35qxuOklVpRWe-206">
          <mxGeometry x="11" y="110" width="179" height="20" as="geometry" />
        </mxCell>
        <mxCell id="Zy6eCbC35qxuOklVpRWe-209" value="&lt;font face=&quot;Times New Roman&quot;&gt;Watch videos（video group 1)&lt;/font&gt;" style="rounded=0;whiteSpace=wrap;html=1;" vertex="1" parent="Zy6eCbC35qxuOklVpRWe-206">
          <mxGeometry x="9" y="30" width="181" height="20" as="geometry" />
        </mxCell>
        <mxCell id="Zy6eCbC35qxuOklVpRWe-210" value="" style="endArrow=classic;html=1;rounded=0;" edge="1" parent="Zy6eCbC35qxuOklVpRWe-206">
          <mxGeometry width="50" height="50" relative="1" as="geometry">
            <mxPoint x="100.11999999999989" y="50" as="sourcePoint" />
            <mxPoint x="100" y="70" as="targetPoint" />
          </mxGeometry>
        </mxCell>
        <mxCell id="Zy6eCbC35qxuOklVpRWe-211" value="" style="endArrow=classic;html=1;rounded=0;" edge="1" parent="Zy6eCbC35qxuOklVpRWe-206">
          <mxGeometry width="50" height="50" relative="1" as="geometry">
            <mxPoint x="99.23999999999978" y="90" as="sourcePoint" />
            <mxPoint x="99.11999999999989" y="110" as="targetPoint" />
          </mxGeometry>
        </mxCell>
        <mxCell id="Zy6eCbC35qxuOklVpRWe-212" value="mild" style="swimlane;whiteSpace=wrap;html=1;" vertex="1" parent="1">
          <mxGeometry x="1310.5" y="890" width="199" height="140" as="geometry" />
        </mxCell>
        <mxCell id="Zy6eCbC35qxuOklVpRWe-213" value="&lt;font face=&quot;Times New Roman&quot;&gt;Post mild comments&lt;/font&gt;&lt;span style=&quot;font-size: medium; text-align: start;&quot;&gt;&lt;/span&gt;" style="whiteSpace=wrap;html=1;" vertex="1" parent="Zy6eCbC35qxuOklVpRWe-212">
          <mxGeometry x="9.5" y="71" width="181" height="20" as="geometry" />
        </mxCell>
        <mxCell id="Zy6eCbC35qxuOklVpRWe-214" value="&lt;font face=&quot;Times New Roman&quot;&gt;Collect test video comments section&lt;/font&gt;" style="rounded=0;whiteSpace=wrap;html=1;" vertex="1" parent="Zy6eCbC35qxuOklVpRWe-212">
          <mxGeometry x="11.5" y="111" width="179" height="20" as="geometry" />
        </mxCell>
        <mxCell id="Zy6eCbC35qxuOklVpRWe-215" value="&lt;font style=&quot;font-size: 12px;&quot; face=&quot;Times New Roman&quot;&gt;Watch videos（video group 1)&lt;/font&gt;" style="rounded=0;whiteSpace=wrap;html=1;" vertex="1" parent="Zy6eCbC35qxuOklVpRWe-212">
          <mxGeometry x="9.5" y="31" width="181" height="20" as="geometry" />
        </mxCell>
        <mxCell id="Zy6eCbC35qxuOklVpRWe-216" value="" style="endArrow=classic;html=1;rounded=0;" edge="1" parent="Zy6eCbC35qxuOklVpRWe-212">
          <mxGeometry width="50" height="50" relative="1" as="geometry">
            <mxPoint x="100.61999999999989" y="51" as="sourcePoint" />
            <mxPoint x="100.5" y="71" as="targetPoint" />
          </mxGeometry>
        </mxCell>
        <mxCell id="Zy6eCbC35qxuOklVpRWe-217" value="" style="endArrow=classic;html=1;rounded=0;" edge="1" parent="Zy6eCbC35qxuOklVpRWe-212">
          <mxGeometry width="50" height="50" relative="1" as="geometry">
            <mxPoint x="99.73999999999978" y="91" as="sourcePoint" />
            <mxPoint x="99.61999999999989" y="111" as="targetPoint" />
          </mxGeometry>
        </mxCell>
        <mxCell id="Zy6eCbC35qxuOklVpRWe-218" value="" style="endArrow=classic;html=1;rounded=0;exitX=1;exitY=0.5;exitDx=0;exitDy=0;entryX=0;entryY=0.5;entryDx=0;entryDy=0;" edge="1" parent="1" source="Zy6eCbC35qxuOklVpRWe-206" target="Zy6eCbC35qxuOklVpRWe-190">
          <mxGeometry width="50" height="50" relative="1" as="geometry">
            <mxPoint x="1500" y="930" as="sourcePoint" />
            <mxPoint x="1550" y="880" as="targetPoint" />
          </mxGeometry>
        </mxCell>
        <mxCell id="Zy6eCbC35qxuOklVpRWe-219" value="" style="endArrow=classic;html=1;rounded=0;exitX=1;exitY=0.5;exitDx=0;exitDy=0;entryX=0;entryY=0.5;entryDx=0;entryDy=0;" edge="1" parent="1" source="Zy6eCbC35qxuOklVpRWe-212" target="Zy6eCbC35qxuOklVpRWe-196">
          <mxGeometry width="50" height="50" relative="1" as="geometry">
            <mxPoint x="1500" y="930" as="sourcePoint" />
            <mxPoint x="1550" y="880" as="targetPoint" />
          </mxGeometry>
        </mxCell>
        <mxCell id="Zy6eCbC35qxuOklVpRWe-221" value="&lt;font style=&quot;font-size: 14px;&quot; face=&quot;Times New Roman&quot;&gt;&lt;b style=&quot;text-align: start;&quot;&gt;&lt;font style=&quot;font-size: 14px;&quot;&gt;The&amp;nbsp;&lt;/font&gt;&lt;/b&gt;&lt;b style=&quot;text-align: start;&quot;&gt;second&lt;/b&gt;&lt;span style=&quot;text-align: start;&quot;&gt;&lt;/span&gt;&lt;b style=&quot;text-align: start;&quot;&gt;&lt;font style=&quot;font-size: 14px;&quot;&gt;&amp;nbsp;stage&lt;/font&gt;&lt;/b&gt;&lt;/font&gt;&lt;span style=&quot;font-size: medium; text-align: start;&quot;&gt;&lt;/span&gt;" style="text;html=1;align=center;verticalAlign=middle;resizable=0;points=[];autosize=1;strokeColor=none;fillColor=none;" vertex="1" parent="1">
          <mxGeometry x="1349.5" y="1169" width="120" height="30" as="geometry" />
        </mxCell>
        <mxCell id="Zy6eCbC35qxuOklVpRWe-222" value="&lt;font face=&quot;Times New Roman&quot; style=&quot;font-size: 14px;&quot;&gt;&lt;b style=&quot;text-align: start;&quot;&gt;&lt;font style=&quot;font-size: 14px;&quot;&gt;The&amp;nbsp;&lt;/font&gt;&lt;/b&gt;&lt;b style=&quot;text-align: start;&quot;&gt;third&lt;/b&gt;&lt;span style=&quot;text-align: start;&quot;&gt;&lt;/span&gt;&lt;b style=&quot;text-align: start;&quot;&gt;&lt;font style=&quot;font-size: 14px;&quot;&gt;&amp;nbsp;stage&lt;/font&gt;&lt;/b&gt;&lt;/font&gt;&lt;span style=&quot;font-size: medium; text-align: start;&quot;&gt;&lt;/span&gt;" style="text;html=1;align=center;verticalAlign=middle;resizable=0;points=[];autosize=1;strokeColor=none;fillColor=none;" vertex="1" parent="1">
          <mxGeometry x="1625.5" y="1169" width="110" height="30" as="geometry" />
        </mxCell>
        <mxCell id="Zy6eCbC35qxuOklVpRWe-223" value="" style="endArrow=classic;html=1;rounded=0;exitX=1;exitY=0.25;exitDx=0;exitDy=0;" edge="1" parent="1">
          <mxGeometry width="50" height="50" relative="1" as="geometry">
            <mxPoint x="1267" y="980" as="sourcePoint" />
            <mxPoint x="1310" y="980" as="targetPoint" />
          </mxGeometry>
        </mxCell>
        <mxCell id="Zy6eCbC35qxuOklVpRWe-224" value="" style="endArrow=classic;html=1;rounded=0;exitX=1;exitY=0.5;exitDx=0;exitDy=0;" edge="1" parent="1" source="Zy6eCbC35qxuOklVpRWe-179">
          <mxGeometry width="50" height="50" relative="1" as="geometry">
            <mxPoint x="1270" y="1010" as="sourcePoint" />
            <mxPoint x="1310" y="800" as="targetPoint" />
          </mxGeometry>
        </mxCell>
        <mxCell id="Zy6eCbC35qxuOklVpRWe-225" value="" style="endArrow=classic;html=1;rounded=0;entryX=0;entryY=0.5;entryDx=0;entryDy=0;" edge="1" parent="1">
          <mxGeometry width="50" height="50" relative="1" as="geometry">
            <mxPoint x="1270" y="1107" as="sourcePoint" />
            <mxPoint x="1310" y="1107" as="targetPoint" />
          </mxGeometry>
        </mxCell>
        <mxCell id="Zy6eCbC35qxuOklVpRWe-226" value="" style="endArrow=classic;html=1;rounded=0;entryX=0;entryY=0.5;entryDx=0;entryDy=0;" edge="1" parent="1" target="Zy6eCbC35qxuOklVpRWe-202">
          <mxGeometry width="50" height="50" relative="1" as="geometry">
            <mxPoint x="1510" y="1103" as="sourcePoint" />
            <mxPoint x="1320" y="1117" as="targetPoint" />
          </mxGeometry>
        </mxCell>
        <mxCell id="Zy6eCbC35qxuOklVpRWe-229" value="" style="endArrow=none;dashed=1;html=1;rounded=0;" edge="1" parent="1">
          <mxGeometry width="50" height="50" relative="1" as="geometry">
            <mxPoint x="1810" y="1190" as="sourcePoint" />
            <mxPoint x="1810" y="700" as="targetPoint" />
          </mxGeometry>
        </mxCell>
        <mxCell id="Zy6eCbC35qxuOklVpRWe-230" value="&lt;font style=&quot;font-size: 16px;&quot; face=&quot;Times New Roman&quot;&gt;&lt;b&gt;Data analysis&lt;/b&gt;&lt;/font&gt;&lt;span style=&quot;font-size: medium; text-align: start;&quot;&gt;&lt;/span&gt;" style="swimlane;fontStyle=0;childLayout=stackLayout;horizontal=1;startSize=30;horizontalStack=0;resizeParent=1;resizeParentMax=0;resizeLast=0;collapsible=1;marginBottom=0;whiteSpace=wrap;html=1;" vertex="1" parent="1">
          <mxGeometry x="1850" y="720" width="250" height="430" as="geometry" />
        </mxCell>
        <mxCell id="Zy6eCbC35qxuOklVpRWe-231" value="&lt;font style=&quot;font-size: 14px;&quot; face=&quot;Times New Roman&quot;&gt;Data Cleaning and Feature Extraction&lt;/font&gt;&lt;span style=&quot;font-size: medium;&quot;&gt;&lt;/span&gt;" style="text;strokeColor=none;fillColor=none;align=left;verticalAlign=middle;spacingLeft=4;spacingRight=4;overflow=hidden;points=[[0,0.5],[1,0.5]];portConstraint=eastwest;rotatable=0;whiteSpace=wrap;html=1;" vertex="1" parent="Zy6eCbC35qxuOklVpRWe-230">
          <mxGeometry y="30" width="250" height="100" as="geometry" />
        </mxCell>
        <mxCell id="Zy6eCbC35qxuOklVpRWe-232" value="&lt;font face=&quot;Times New Roman&quot; style=&quot;font-size: 14px;&quot;&gt;Correlation and Ranking Analysis&lt;/font&gt;&lt;span style=&quot;font-size: medium;&quot;&gt;&lt;/span&gt;" style="text;strokeColor=none;fillColor=none;align=left;verticalAlign=middle;spacingLeft=4;spacingRight=4;overflow=hidden;points=[[0,0.5],[1,0.5]];portConstraint=eastwest;rotatable=0;whiteSpace=wrap;html=1;" vertex="1" parent="Zy6eCbC35qxuOklVpRWe-230">
          <mxGeometry y="130" width="250" height="100" as="geometry" />
        </mxCell>
        <mxCell id="Zy6eCbC35qxuOklVpRWe-233" value="&lt;font face=&quot;Times New Roman&quot; style=&quot;font-size: 14px;&quot;&gt;Analysis of Polarisation Phenomenon&lt;/font&gt;&lt;span style=&quot;font-size: medium;&quot;&gt;&lt;/span&gt;" style="text;strokeColor=none;fillColor=none;align=left;verticalAlign=middle;spacingLeft=4;spacingRight=4;overflow=hidden;points=[[0,0.5],[1,0.5]];portConstraint=eastwest;rotatable=0;whiteSpace=wrap;html=1;" vertex="1" parent="Zy6eCbC35qxuOklVpRWe-230">
          <mxGeometry y="230" width="250" height="100" as="geometry" />
        </mxCell>
        <mxCell id="Zy6eCbC35qxuOklVpRWe-234" value="&lt;font face=&quot;Times New Roman&quot; style=&quot;font-size: 14px;&quot;&gt;Analysis of Polarisation Phenomenon&lt;/font&gt;&lt;span style=&quot;font-size: medium;&quot;&gt;&lt;/span&gt;" style="text;strokeColor=none;fillColor=none;align=left;verticalAlign=middle;spacingLeft=4;spacingRight=4;overflow=hidden;points=[[0,0.5],[1,0.5]];portConstraint=eastwest;rotatable=0;whiteSpace=wrap;html=1;" vertex="1" parent="Zy6eCbC35qxuOklVpRWe-230">
          <mxGeometry y="330" width="250" height="100" as="geometry" />
        </mxCell>
      </root>
    </mxGraphModel>
  </diagram>
</mxfile>
